<?xml version="1.0" standalone="no"?>
<!DOCTYPE svg PUBLIC "-//W3C//DTD SVG 20010904//EN"
 "http://www.w3.org/TR/2001/REC-SVG-20010904/DTD/svg10.dtd">
<svg version="1.0" xmlns="http://www.w3.org/2000/svg"
 width="512.000000pt" height="512.000000pt" viewBox="0 0 512.000000 512.000000"
 preserveAspectRatio="xMidYMid meet">

<g transform="translate(0.000000,512.000000) scale(0.100000,-0.100000)"
fill="#000000" stroke="none">
<path d="M267 5109 c-103 -24 -188 -95 -234 -194 l-28 -60 -3 -302 c-3 -252
-1 -313 13 -365 27 -107 96 -190 192 -230 l53 -22 0 -1498 0 -1498 -52 0 c-98
-1 -157 -34 -189 -105 -16 -35 -19 -67 -19 -240 0 -145 5 -218 16 -265 26
-110 88 -197 187 -261 114 -74 -53 -69 2359 -69 2324 0 2227 -2 2326 49 58 30
122 90 163 154 57 87 69 158 69 394 0 171 -3 204 -19 238 -32 71 -91 104 -188
105 l-53 0 0 613 0 614 -22 20 c-13 11 -33 24 -45 27 -26 8 -78 -16 -87 -39
-3 -9 -6 -291 -6 -626 l0 -609 -690 0 -690 0 45 55 c25 31 45 59 45 64 0 4 11
20 25 35 17 19 34 26 60 26 64 0 178 31 261 71 150 71 220 181 212 334 -5 88
-21 130 -72 183 -61 65 -95 76 -252 80 l-141 4 -5 68 c-8 104 -50 161 -134
180 -51 12 -1557 12 -1608 0 -49 -11 -85 -37 -111 -81 -19 -32 -20 -52 -20
-359 0 -312 1 -328 23 -400 27 -87 59 -146 114 -212 l39 -48 -690 0 -691 0 2
1493 3 1492 126 3 127 3 5 -343 c3 -208 9 -360 16 -387 19 -72 68 -161 128
-230 59 -69 97 -141 108 -202 l7 -36 -47 -6 c-101 -14 -189 -89 -213 -182 -16
-61 -65 -621 -60 -691 7 -115 98 -212 214 -228 85 -11 347 -7 401 7 97 26 160
87 185 180 11 42 9 93 -19 391 -33 367 -36 380 -97 444 -40 43 -78 63 -146 77
l-55 12 -7 54 c-13 101 -59 194 -144 290 -26 29 -59 78 -73 108 l-26 56 -3
344 -3 343 124 -4 c115 -4 129 -6 189 -36 36 -18 82 -50 101 -71 20 -22 89
-146 158 -283 113 -223 128 -248 188 -308 36 -36 92 -79 123 -95 l58 -30 0
-225 c0 -244 8 -319 40 -386 45 -92 148 -167 252 -182 l53 -7 3 -60 c4 -75 28
-105 82 -105 53 0 74 27 80 104 l5 61 255 0 255 0 5 -61 c6 -77 27 -104 80
-104 54 0 78 30 82 105 l3 60 53 7 c75 11 141 48 200 112 l51 56 221 0 222 0
34 -30 c68 -59 88 -61 656 -58 505 3 514 3 554 25 59 31 110 93 128 154 22 72
22 335 1 405 -19 66 -72 126 -137 155 l-53 24 -520 0 -520 0 -52 -23 c-28 -13
-59 -32 -69 -43 -16 -18 -33 -19 -221 -19 -187 0 -203 1 -203 18 0 11 21 28
58 47 31 16 87 59 123 95 60 60 75 85 188 308 69 137 138 261 158 283 19 21
65 53 101 71 l67 33 335 0 335 0 5 -278 c5 -278 5 -279 29 -298 32 -26 77 -24
106 6 l25 24 0 279 0 278 53 22 c96 40 165 123 192 230 14 52 16 113 13 365
l-3 302 -28 61 c-35 76 -94 135 -172 171 l-60 28 -2275 2 c-1301 0 -2291 -3
-2313 -8z m4595 -181 c23 -13 51 -41 64 -64 l25 -42 -3 -309 -3 -310 -28 -36
c-56 -73 -44 -71 -512 -78 -261 -3 -431 -9 -450 -16 -99 -36 -191 -98 -246
-167 -22 -28 -94 -157 -160 -289 -132 -261 -160 -299 -259 -346 l-55 -26 -675
0 -675 0 -56 26 c-98 46 -126 84 -258 346 -66 132 -138 261 -160 289 -48 61
-142 128 -219 157 -54 21 -78 22 -477 27 -468 6 -456 4 -512 77 l-28 36 -3
309 c-3 305 -3 309 20 349 12 22 41 51 63 65 l40 24 2264 0 2263 0 40 -22z
m-1702 -2083 c0 -279 -10 -313 -105 -356 -37 -17 -75 -19 -493 -19 -385 0
-458 2 -489 15 -50 21 -72 42 -94 90 -16 35 -19 68 -19 268 l0 227 600 0 600
0 0 -225z m1761 116 l29 -29 0 -160 c0 -159 0 -159 -26 -186 l-27 -26 -504 0
-504 0 -24 25 c-25 24 -25 27 -25 189 l0 164 31 26 31 26 495 0 495 0 29 -29z
m-1251 -191 l0 -130 -170 0 -170 0 0 130 0 130 170 0 170 0 0 -130z m-2485
-236 c14 -15 25 -34 25 -43 1 -9 14 -151 29 -316 30 -322 29 -349 -17 -374
-13 -7 -90 -11 -199 -11 -189 0 -209 4 -233 51 -8 14 -4 98 15 302 33 368 32
365 60 393 23 23 30 24 160 24 134 0 136 0 160 -26z m2143 -961 l-3 -308 -36
-76 c-46 -95 -116 -167 -206 -211 l-68 -33 -455 0 -455 0 -66 32 c-90 45 -163
119 -208 212 l-36 76 -3 308 -3 307 771 0 771 0 -3 -307z m447 23 c30 -30 41
-87 26 -136 -22 -75 -146 -156 -258 -167 l-56 -6 6 33 c4 18 7 93 7 166 l0
134 125 0 c119 0 127 -1 150 -24z m1175 -910 l0 -85 -231 -3 -231 -3 -24 -28
c-31 -37 -31 -81 1 -112 l24 -25 232 0 232 0 -6 -39 c-11 -82 -67 -159 -143
-197 -38 -19 -83 -19 -2244 -19 -2161 0 -2206 0 -2244 19 -76 38 -132 115
-143 197 l-6 39 232 0 232 0 24 25 c32 31 32 75 1 112 l-24 28 -231 3 -231 3
0 85 0 84 2390 0 2390 0 0 -84z"/>
<path d="M627 4769 c-124 -30 -206 -143 -194 -269 20 -222 289 -309 438 -143
45 50 63 101 62 173 -1 64 -21 115 -63 164 -55 62 -162 95 -243 75z m114 -188
c57 -57 23 -141 -57 -141 -52 0 -84 31 -84 82 0 82 83 116 141 59z"/>
<path d="M1299 4767 c-87 -25 -150 -86 -175 -174 -57 -197 132 -376 325 -308
61 21 104 58 137 117 38 69 41 170 7 234 -56 106 -182 162 -294 131z m104
-169 c80 -42 52 -158 -38 -158 -89 0 -118 113 -40 158 26 15 51 15 78 0z"/>
<path d="M3687 4766 c-117 -32 -198 -150 -184 -268 29 -245 354 -313 470 -99
36 66 43 124 24 192 -39 133 -178 212 -310 175z m106 -168 c80 -42 52 -158
-38 -158 -89 0 -118 113 -40 158 26 15 51 15 78 0z"/>
<path d="M4369 4767 c-155 -44 -230 -220 -154 -366 21 -42 86 -96 139 -116 95
-36 220 -1 282 80 147 193 -35 466 -267 402z m126 -182 c55 -54 19 -145 -57
-145 -82 0 -116 83 -59 141 38 37 82 39 116 4z"/>
<path d="M2445 4680 c-223 -48 -403 -218 -460 -435 -20 -77 -19 -220 1 -299
25 -98 81 -193 159 -271 230 -231 598 -232 829 -2 121 120 176 253 176 422 0
162 -49 288 -156 403 -112 121 -244 182 -409 188 -55 2 -118 -1 -140 -6z m298
-198 c127 -63 215 -181 239 -321 22 -127 -19 -257 -113 -356 -87 -92 -185
-135 -309 -135 -124 0 -222 43 -309 135 -94 99 -135 229 -113 356 21 120 83
220 178 285 86 59 143 75 260 72 90 -3 107 -7 167 -36z"/>
<path d="M2505 4325 c-24 -23 -25 -30 -25 -140 0 -64 4 -124 10 -134 16 -31
65 -46 100 -31 17 7 35 21 40 31 6 10 10 70 10 134 0 110 -1 117 -25 140 -15
16 -36 25 -55 25 -19 0 -40 -9 -55 -25z"/>
<path d="M2013 1440 c-79 -32 -47 -200 54 -276 46 -35 129 -60 168 -50 39 10
65 42 65 79 -1 50 -40 87 -93 87 -32 0 -77 52 -77 88 -1 31 -16 54 -47 70 -25
14 -40 14 -70 2z"/>
</g>
</svg>
